<?xml version="1.0" standalone="no"?>
<!DOCTYPE svg PUBLIC "-//W3C//DTD SVG 20010904//EN"
 "http://www.w3.org/TR/2001/REC-SVG-20010904/DTD/svg10.dtd">
<svg version="1.0" xmlns="http://www.w3.org/2000/svg"
 width="3584.000000pt" height="3584.000000pt" viewBox="0 0 3584.000000 3584.000000"
 preserveAspectRatio="xMidYMid meet">
<metadata>
Created by potrace 1.14, written by Peter Selinger 2001-2017
</metadata>
<g transform="translate(0.000000,3584.000000) scale(0.100000,-0.100000)"
fill="#000000" stroke="none">
<path d="M6580 22323 c-13 -3 -15 -494 -13 -4356 0 -2393 2 -4358 2 -4366 1
-10 4 -11 14 -3 8 7 18 7 27 2 8 -5 21 -5 30 0 9 5 22 5 28 1 7 -4 33 -5 57
-1 25 4 45 3 45 -1 0 -5 11 -4 25 1 15 6 26 6 30 0 4 -6 13 -7 23 -1 25 13 25
13 54 2 17 -6 30 -7 33 -1 3 6 15 6 30 0 16 -6 25 -6 25 0 0 6 9 6 23 2 25 -9
59 -8 75 2 6 3 13 2 17 -4 4 -6 12 -7 24 -1 9 5 23 6 30 1 8 -4 27 -4 42 0 16
5 29 5 29 0 0 -5 13 -5 30 0 18 5 30 5 30 0 0 -6 10 -6 25 0 15 6 25 6 25 0 0
-5 12 -5 30 0 17 5 32 5 35 0 3 -5 16 -5 30 0 15 6 27 6 30 -1 4 -5 11 -7 16
-3 15 9 79 11 79 2 0 -3 14 -3 30 2 17 5 30 5 30 1 0 -4 25 -4 55 -1 30 3 55
3 55 -2 0 -4 11 -3 25 2 15 6 26 6 30 0 4 -6 14 -6 28 2 12 6 24 10 27 8 22
-12 50 -18 55 -10 3 6 15 6 30 0 16 -6 25 -6 25 0 0 6 9 6 23 2 25 -9 59 -8
75 2 6 3 13 2 17 -4 4 -6 12 -7 24 -1 9 5 23 6 30 1 8 -4 27 -4 42 0 16 5 29
5 29 1 0 -8 90 -4 99 4 3 3 5 438 6 965 l0 959 40 42 c59 63 211 227 308 334
25 28 65 71 89 96 23 26 77 84 118 130 41 45 89 98 107 116 l31 34 16 -23 c9
-12 16 -28 16 -34 0 -7 3 -14 8 -16 9 -4 202 -326 202 -338 0 -4 4 -10 8 -12
7 -3 85 -132 137 -226 11 -21 23 -38 28 -40 4 -2 7 -10 7 -18 0 -8 4 -14 8
-14 4 0 13 -12 19 -27 12 -27 33 -63 43 -73 3 -3 13 -20 23 -38 43 -81 53 -97
70 -116 9 -11 17 -23 17 -27 0 -4 35 -66 79 -138 43 -71 82 -136 85 -143 9
-17 31 -54 143 -240 50 -84 150 -252 221 -373 72 -121 134 -225 139 -230 4 -6
19 -30 32 -55 14 -25 27 -47 30 -50 3 -3 12 -16 19 -29 33 -57 52 -90 86 -148
20 -35 36 -66 36 -69 -1 -4 2 -10 7 -13 10 -7 63 -88 63 -96 0 -3 16 -29 35
-58 19 -28 35 -46 35 -40 0 9 7 10 25 3 15 -6 25 -6 25 0 0 5 12 5 28 1 15 -4
39 -4 55 0 15 4 27 3 27 -1 0 -5 14 -5 30 0 17 5 30 5 30 0 0 -4 15 -5 33 0
18 4 43 3 55 -1 12 -5 24 -4 27 1 3 6 15 6 30 0 16 -6 25 -6 25 0 0 5 9 6 22
1 13 -4 35 -5 50 0 16 4 28 4 28 -1 0 -5 13 -5 30 0 17 5 30 5 30 0 0 -5 12
-5 28 -1 15 5 37 5 49 0 13 -5 25 -4 28 1 3 6 15 6 30 0 16 -6 25 -6 25 0 0 5
9 6 22 1 13 -4 35 -5 50 0 16 4 28 4 28 -1 0 -5 13 -5 30 0 17 5 30 5 30 1 0
-4 23 -5 50 -1 28 4 50 3 50 -2 0 -4 11 -3 25 2 15 6 26 6 30 0 4 -6 13 -7 23
-1 25 13 25 13 54 2 17 -6 30 -7 33 -1 3 6 15 6 30 0 16 -6 25 -6 25 0 0 6 9
6 23 1 13 -5 30 -5 37 -1 8 5 19 5 25 0 6 -5 17 -5 25 0 8 5 21 5 31 -1 11 -6
20 -5 24 1 4 6 13 7 23 1 17 -8 49 -7 59 3 3 3 14 1 24 -4 11 -7 20 -7 24 0 4
6 15 6 30 0 15 -6 25 -6 25 0 0 5 12 5 30 0 19 -5 30 -5 30 1 0 6 5 7 11 3 14
-8 124 -8 137 0 6 3 13 2 17 -4 4 -6 12 -7 24 -1 10 6 23 6 31 1 8 -5 21 -5
29 -1 14 8 31 7 73 -1 17 -4 11 31 -8 53 -8 8 -14 19 -14 22 0 4 -15 31 -34
60 -19 29 -43 69 -54 88 -11 19 -57 95 -102 169 -45 74 -90 149 -100 165 -10
17 -54 90 -99 163 -44 74 -81 138 -81 143 0 5 -4 9 -10 9 -5 0 -10 4 -10 9 0
7 -107 190 -127 216 -17 23 -45 71 -50 88 -3 9 -9 17 -14 17 -5 0 -9 5 -9 11
0 6 -14 30 -30 54 -16 24 -30 48 -30 53 0 5 -7 15 -15 22 -9 7 -13 15 -10 18
3 3 -2 14 -12 24 -17 19 -23 28 -65 104 -15 27 -68 114 -118 194 -50 80 -93
152 -97 160 -3 8 -19 34 -35 57 -15 23 -28 46 -28 52 0 6 -4 11 -10 11 -5 0
-10 6 -10 13 0 6 -20 42 -44 80 -25 37 -42 67 -38 67 4 0 2 4 -3 8 -10 6 -28
35 -85 131 -116 196 -172 286 -190 308 -5 7 -10 15 -10 18 0 6 -120 205 -221
370 -10 17 -22 37 -26 45 -3 8 -17 29 -31 47 -13 17 -23 34 -23 37 1 3 -14 30
-33 59 -19 29 -45 71 -58 94 -12 22 -59 99 -103 172 -44 72 -85 139 -90 149
-6 9 -34 57 -63 105 -28 48 -52 90 -52 93 0 3 18 24 39 47 22 23 49 53 61 67
12 14 48 54 80 90 32 36 68 76 80 90 19 22 138 153 210 231 14 15 47 52 73 82
27 31 63 71 80 90 18 19 64 69 102 112 39 44 77 86 85 95 8 9 49 54 90 100 41
47 94 105 117 130 23 25 61 67 85 94 24 27 54 61 68 76 14 15 52 57 85 95 33
37 76 84 95 104 19 21 64 71 100 111 36 41 76 85 89 99 26 29 136 152 164 185
10 11 39 44 65 72 26 28 79 86 117 129 39 42 86 94 105 115 19 21 46 51 60 67
28 32 149 168 194 217 l29 31 -1064 3 -1063 2 -56 -58 c-58 -61 -262 -279
-365 -389 -33 -35 -97 -103 -143 -151 -45 -48 -129 -136 -185 -197 -56 -60
-128 -137 -159 -169 -32 -32 -58 -60 -58 -62 0 -3 -66 -72 -246 -260 -40 -41
-70 -74 -69 -74 2 0 -22 -26 -53 -58 -32 -32 -113 -118 -182 -192 -69 -73
-141 -149 -160 -170 -19 -20 -91 -97 -160 -170 -69 -73 -163 -173 -210 -222
l-85 -90 0 2342 c0 2108 -2 2343 -16 2350 -8 5 -21 5 -29 0 -8 -5 -19 -6 -24
-3 -17 11 -56 9 -56 -2 0 -5 -5 -3 -10 5 -7 11 -10 11 -10 2 0 -7 -5 -10 -11
-7 -15 10 -99 11 -99 2 0 -4 -8 -4 -17 2 -10 5 -26 5 -40 0 -13 -5 -23 -5 -23
-1 0 4 -11 7 -25 7 -14 0 -25 -4 -25 -8 0 -5 -5 -5 -11 -2 -15 10 -99 11 -99
2 0 -5 -5 -5 -11 -2 -15 10 -78 12 -73 3 3 -5 -6 -4 -20 2 -18 6 -26 6 -26 -1
0 -6 -5 -7 -11 -4 -15 10 -99 11 -99 2 0 -4 -8 -4 -17 2 -10 5 -26 5 -40 0
-13 -5 -23 -5 -23 -1 0 4 -11 7 -25 7 -14 0 -25 -4 -25 -8 0 -5 -5 -5 -11 -2
-15 10 -99 11 -99 2 0 -5 -5 -5 -12 -1 -14 9 -103 8 -118 -1 -5 -3 -10 -2 -10
2 0 10 -82 9 -99 -1 -6 -4 -11 -3 -11 2 0 6 -14 7 -35 2 -19 -4 -35 -5 -35 -1
0 3 -11 6 -25 6 -14 0 -25 -4 -25 -8 0 -4 -7 -4 -16 1 -9 5 -34 6 -55 2 -21
-4 -39 -5 -39 -1 0 3 -11 6 -25 6 -14 0 -25 -4 -25 -8 0 -4 -7 -4 -16 1 -9 5
-34 6 -55 2 -21 -4 -39 -4 -39 -1 0 9 -48 7 -57 -2 -3 -4 -11 -3 -17 1 -6 5
-18 7 -26 5z"/>
<path d="M16329 22322 c-15 -3 -17 -342 -17 -4350 -1 -2391 1 -4355 4 -4364 4
-14 10 -15 29 -8 15 6 27 6 30 0 3 -6 15 -6 30 0 13 5 27 5 29 1 3 -5 24 -5
46 -1 22 4 43 3 46 -1 3 -5 13 -5 23 0 10 6 23 6 31 1 8 -5 19 -6 25 -2 14 9
36 9 62 0 12 -4 25 -3 28 2 3 6 15 6 30 0 16 -6 25 -6 25 0 0 5 9 6 22 1 13
-4 35 -5 50 0 16 4 28 4 28 -1 0 -5 13 -5 30 0 17 5 30 5 30 0 0 -5 12 -5 28
-1 15 5 37 5 49 0 13 -5 25 -4 28 1 3 6 15 6 30 0 16 -6 25 -6 25 0 0 5 9 6
22 1 13 -4 35 -5 50 0 16 4 28 4 28 -1 0 -5 13 -5 30 0 17 5 30 5 30 1 0 -4
20 -5 45 -1 25 4 48 3 51 -1 2 -5 16 -4 29 1 15 6 27 6 30 0 4 -7 13 -6 25 0
13 7 21 7 25 0 4 -6 13 -7 24 -1 10 6 23 6 31 1 8 -5 21 -5 30 0 9 5 22 5 28
1 7 -4 33 -5 57 -1 25 4 45 3 45 -1 0 -5 11 -4 25 1 15 6 26 6 30 0 4 -6 14
-6 28 2 12 6 22 11 22 10 0 -7 56 -19 60 -12 3 6 15 6 30 0 16 -6 25 -6 25 0
0 6 9 6 25 0 15 -6 26 -6 30 0 4 6 13 7 24 1 10 -6 23 -6 31 -1 8 5 22 5 32
-1 18 -10 19 -8 32 62 2 9 0 23 -5 30 -4 7 -4 20 1 29 4 8 4 22 0 31 -5 8 -5
21 -1 28 5 7 5 30 1 51 -4 21 -4 44 1 51 4 7 3 21 -2 30 -5 10 -5 20 -1 23 5
3 6 25 2 50 -4 24 -3 51 1 58 4 8 4 20 0 27 -5 7 -5 30 -1 51 4 21 4 44 -1 51
-4 7 -4 20 1 29 5 9 4 23 -1 32 -5 9 -5 19 -1 22 5 3 6 26 2 50 -4 25 -3 51 1
58 4 6 4 19 -1 28 -5 9 -5 22 -1 29 5 7 5 30 1 51 -4 21 -4 44 1 51 4 7 3 21
-2 30 -5 10 -5 20 -1 23 5 3 6 25 2 50 -4 24 -3 51 1 58 4 8 4 20 0 27 -5 7
-5 30 -1 51 4 21 4 44 -1 51 -4 7 -4 20 1 29 5 9 4 23 -1 32 -5 9 -5 19 -1 22
5 3 6 26 2 50 -4 25 -3 51 1 58 4 6 4 19 -1 28 -5 9 -5 22 -1 29 5 7 5 30 1
51 -4 21 -4 44 1 51 4 7 3 21 -2 30 -6 12 -5 20 1 24 6 4 8 10 6 14 -5 7 -6
41 -6 134 0 178 -1 231 -6 239 -3 4 -1 8 3 8 5 0 8 12 7 28 -4 43 -6 140 -3
207 0 11 0 26 0 33 -1 13 -1 15 -2 121 0 41 -2 78 -5 83 -3 4 -1 8 3 8 5 0 8
12 7 28 -4 43 -6 140 -3 207 0 11 0 26 0 33 -1 13 -1 15 -2 121 0 41 -2 78 -5
83 -3 4 -1 8 3 8 5 0 8 12 7 28 -4 43 -6 140 -3 207 0 11 0 26 0 33 -1 13 -1
15 -2 121 0 41 -2 78 -5 83 -3 4 -1 8 3 8 5 0 8 12 7 28 -4 43 -6 140 -3 207
0 11 0 26 0 33 -1 13 -1 15 -2 121 0 41 -2 78 -5 83 -3 4 -1 8 3 8 5 0 8 12 7
28 -4 43 -6 140 -3 207 0 11 0 26 0 33 -1 22 -2 117 -1 190 0 95 -2 167 -6
174 -3 4 -1 8 3 8 5 0 8 12 7 28 -4 43 -6 140 -3 207 0 11 0 26 0 33 -1 13 -1
15 -2 121 0 41 -2 78 -5 83 -3 4 -1 8 3 8 5 0 8 12 7 28 -4 43 -6 140 -3 207
0 11 0 26 0 33 -1 13 -1 15 -2 121 0 41 -2 78 -5 83 -3 4 -1 8 3 8 5 0 8 12 7
28 -4 43 -6 140 -3 207 0 11 0 26 0 33 -1 13 -1 15 -2 121 0 41 -2 78 -5 83
-3 4 -1 8 3 8 5 0 8 12 7 28 -4 43 -6 140 -3 207 0 11 0 26 0 33 -1 13 -1 15
-2 121 0 41 -2 78 -5 83 -3 4 -1 8 3 8 5 0 8 12 7 28 -4 43 -6 140 -3 207 0
11 0 26 0 33 -1 22 -2 117 -1 190 0 95 -2 167 -6 174 -3 4 -1 8 3 8 5 0 8 12
7 28 -4 43 -6 140 -3 207 0 11 0 26 0 33 -1 13 -1 15 -2 121 0 41 -2 78 -5 83
-3 4 -1 8 3 8 5 0 8 12 7 28 -4 43 -6 140 -3 207 0 11 0 26 0 33 -1 13 -1 15
-2 121 0 41 -2 78 -5 83 -3 4 -1 8 3 8 5 0 8 12 7 28 -4 43 -6 140 -3 207 0
11 0 26 0 33 -2 39 -2 175 0 227 1 22 1 48 1 58 -1 9 -2 32 -3 51 -2 32 -4 33
-31 26 -15 -5 -28 -6 -28 -2 0 4 -22 7 -50 7 -27 0 -50 -4 -50 -8 0 -5 -5 -5
-11 -2 -15 10 -78 12 -73 3 3 -5 -6 -4 -20 2 -18 6 -26 6 -26 -1 0 -6 -5 -7
-11 -4 -15 10 -99 11 -99 2 0 -4 -8 -4 -17 2 -10 5 -26 5 -40 0 -13 -5 -23 -5
-23 -1 0 4 -11 7 -25 7 -14 0 -25 -4 -25 -8 0 -5 -5 -5 -11 -2 -15 10 -99 11
-99 2 0 -5 -5 -5 -11 -2 -15 10 -78 12 -73 3 3 -5 -6 -4 -20 2 -18 6 -26 6
-26 -1 0 -6 -5 -7 -11 -4 -15 10 -99 11 -99 2 0 -4 -8 -4 -17 2 -10 5 -26 5
-40 0 -13 -5 -23 -5 -23 -1 0 4 -11 7 -25 7 -14 0 -25 -4 -25 -8 0 -5 -5 -5
-11 -2 -15 10 -99 11 -99 2 0 -5 -5 -5 -12 -1 -14 9 -103 8 -118 -1 -5 -3 -10
-2 -10 2 0 10 -82 9 -99 -1 -6 -4 -11 -4 -11 1 0 4 -16 8 -35 8 -19 0 -35 -4
-35 -8 0 -5 -5 -5 -12 -1 -14 9 -103 8 -118 -1 -5 -3 -10 -2 -10 2 0 10 -82 9
-98 -1 -6 -3 -12 -3 -14 2 -1 4 -10 6 -19 4z"/>
<path d="M19320 22323 c-13 -3 -15 -494 -13 -4351 1 -2391 2 -4355 2 -4365 1
-15 4 -16 24 -6 12 7 22 12 22 11 0 -7 56 -19 60 -12 3 6 15 6 30 0 16 -6 25
-6 25 0 0 8 28 2 50 -10 3 -2 15 2 27 8 14 8 24 8 28 2 3 -6 15 -6 30 0 13 5
27 5 29 1 3 -5 24 -5 46 -1 22 4 40 4 40 -1 0 -5 11 -4 25 1 16 6 25 6 25 0 0
-6 9 -6 25 0 14 5 27 5 30 0 3 -5 18 -5 35 0 18 5 30 5 30 0 0 -6 10 -6 25 0
15 6 26 6 30 0 4 -6 13 -7 23 -1 21 11 31 11 59 0 13 -5 25 -4 28 1 3 6 15 6
30 0 16 -6 25 -6 25 0 0 6 9 6 25 0 16 -6 34 -6 50 0 15 6 27 6 30 0 3 -6 15
-6 30 0 13 5 27 5 29 1 3 -5 24 -5 46 -1 22 4 43 3 46 -1 3 -5 13 -5 23 0 10
6 23 6 31 1 8 -5 18 -6 23 -3 14 9 87 9 87 1 0 -4 11 -3 25 2 15 6 26 6 30 0
4 -6 14 -6 28 2 12 6 22 11 22 10 0 -7 56 -19 60 -12 3 6 15 6 30 0 16 -6 25
-6 25 0 0 6 9 6 25 0 16 -6 25 -6 25 1 0 6 7 6 19 -1 13 -7 22 -7 26 0 4 7 12
7 25 0 12 -6 21 -7 25 0 3 5 13 6 22 3 16 -6 63 -8 81 -3 4 1 14 3 22 4 12 1
15 17 14 83 0 55 3 80 10 75 8 -4 8 -1 0 9 -7 10 -10 1286 -9 4269 1 2363 -2
4263 -7 4273 -7 14 -13 15 -28 7 -11 -6 -20 -7 -20 -2 0 5 -7 9 -15 9 -8 0
-15 -4 -15 -9 0 -5 -5 -6 -11 -3 -15 10 -99 11 -99 2 0 -4 -8 -4 -17 2 -10 5
-26 5 -40 0 -13 -5 -23 -5 -23 -1 0 4 -11 7 -25 7 -14 0 -25 -4 -25 -8 0 -5
-5 -5 -11 -2 -15 10 -99 11 -99 2 0 -5 -5 -5 -11 -2 -15 10 -78 12 -73 3 3 -5
-6 -4 -20 2 -18 6 -26 6 -26 -1 0 -6 -5 -7 -11 -4 -15 10 -99 11 -99 2 0 -4
-8 -4 -17 2 -10 5 -26 5 -40 0 -13 -5 -23 -5 -23 -1 0 4 -11 7 -25 7 -14 0
-25 -4 -25 -8 0 -5 -5 -5 -11 -2 -15 10 -99 11 -99 2 0 -5 -5 -5 -12 -1 -14 9
-103 8 -118 -1 -5 -3 -10 -2 -10 2 0 10 -82 9 -99 -1 -6 -4 -11 -3 -11 2 0 6
-14 7 -35 2 -19 -4 -35 -5 -35 -1 0 3 -11 6 -25 6 -14 0 -25 -4 -25 -8 0 -4
-7 -4 -16 1 -9 5 -34 6 -55 2 -21 -4 -39 -5 -39 -1 0 3 -11 6 -25 6 -14 0 -25
-4 -25 -8 0 -4 -7 -4 -16 1 -9 5 -34 6 -55 2 -21 -4 -39 -5 -39 -1 0 3 -11 6
-25 6 -14 0 -25 -4 -25 -8 0 -4 -8 -4 -17 1 -10 5 -27 6 -38 2 -11 -4 -24 -4
-30 -1 -5 4 -17 6 -25 4z"/>
<path d="M34106 22323 c-3 -3 -6 -669 -6 -1480 0 -810 -3 -1473 -6 -1473 -4 0
-23 17 -43 38 -20 20 -55 50 -76 66 -22 17 -42 32 -45 35 -17 19 -100 81 -108
81 -5 0 -15 7 -22 15 -13 16 -124 82 -240 142 -156 82 -417 174 -605 214 -33
7 -62 13 -65 14 -3 1 -32 5 -65 9 -33 5 -69 11 -80 13 -19 4 -68 10 -147 17
-20 2 -41 7 -47 10 -6 4 -11 3 -11 -3 0 -6 -11 -7 -27 -2 -51 14 -486 5 -618
-13 -16 -2 -52 -7 -80 -11 -27 -3 -59 -8 -71 -10 -12 -3 -39 -7 -60 -11 -32
-5 -158 -32 -224 -49 -125 -32 -322 -99 -430 -148 -89 -39 -255 -120 -260
-127 -3 -3 -25 -16 -50 -29 -84 -43 -279 -173 -328 -218 -7 -7 -17 -13 -21
-13 -5 0 -22 -12 -39 -27 -17 -16 -50 -44 -73 -63 -141 -117 -314 -289 -385
-382 -11 -15 -24 -25 -27 -21 -4 3 -7 -1 -7 -10 0 -9 -6 -20 -12 -24 -7 -4
-35 -39 -63 -76 -27 -38 -55 -74 -60 -80 -17 -20 -135 -197 -135 -203 0 -3
-14 -25 -30 -50 -17 -24 -27 -44 -23 -44 4 0 -1 -7 -11 -15 -11 -8 -17 -15
-13 -15 4 0 -3 -17 -14 -37 -47 -83 -125 -247 -149 -313 -7 -19 -19 -48 -26
-65 -14 -33 -75 -211 -79 -235 -2 -8 -4 -15 -5 -15 -1 0 -3 -7 -5 -15 -2 -8
-12 -51 -24 -95 -11 -44 -22 -92 -25 -107 -3 -15 -7 -32 -10 -37 -3 -4 -8 -28
-10 -52 -3 -24 -7 -55 -11 -69 -3 -14 -8 -45 -10 -70 -2 -25 -5 -45 -5 -45 -1
0 -3 -11 -5 -25 -1 -14 -6 -61 -11 -105 -11 -101 -11 -607 0 -700 5 -38 10
-83 12 -100 10 -90 22 -167 40 -252 3 -16 7 -37 9 -48 5 -33 66 -269 75 -290
5 -11 14 -38 21 -60 6 -22 15 -49 20 -60 4 -11 26 -66 48 -121 56 -143 159
-348 244 -489 7 -11 36 -55 65 -98 28 -43 52 -82 52 -87 0 -5 3 -10 8 -12 4
-1 27 -30 52 -63 177 -238 411 -469 660 -652 96 -70 295 -198 327 -210 10 -4
20 -9 23 -13 7 -9 237 -120 283 -136 22 -8 45 -18 51 -23 24 -18 385 -128 481
-146 11 -2 31 -6 45 -9 113 -22 271 -43 400 -53 173 -14 519 -8 675 12 86 10
110 14 110 15 0 1 16 3 35 4 20 1 41 5 47 9 6 4 33 10 59 13 27 3 52 8 56 10
7 5 26 9 73 18 6 1 16 5 23 9 6 5 12 6 12 2 0 -3 16 1 35 9 19 8 35 13 35 10
0 -2 16 2 35 10 20 9 39 15 43 16 18 1 139 44 151 54 8 6 17 10 20 9 12 -3
177 71 254 114 33 18 62 33 66 33 4 0 16 7 26 15 11 9 49 35 85 58 36 23 72
48 80 54 8 7 44 36 80 65 36 28 93 80 128 115 34 35 62 62 63 61 1 -2 2 -136
4 -298 1 -162 3 -296 4 -297 0 -1 14 2 31 7 17 5 32 5 35 0 3 -5 16 -5 30 0
15 6 27 6 30 -1 4 -5 11 -7 16 -3 15 9 79 11 79 2 0 -3 14 -3 30 2 17 5 30 5
30 1 0 -4 23 -5 50 -1 28 4 53 3 56 -1 3 -5 16 -4 29 1 15 6 27 6 30 0 4 -7
13 -6 25 0 13 7 21 7 25 0 4 -6 13 -7 24 -1 10 6 23 6 31 1 8 -5 21 -5 30 0 9
5 22 5 28 1 7 -4 33 -5 57 -1 25 4 45 3 45 -1 0 -5 11 -4 25 1 15 6 26 6 30 0
4 -6 14 -6 28 2 12 6 22 11 22 10 0 -7 56 -19 60 -12 3 6 15 6 30 0 16 -6 25
-6 25 0 0 6 9 6 23 2 25 -9 59 -8 75 2 6 3 13 2 17 -4 4 -6 12 -7 24 -1 9 5
23 6 30 1 8 -4 27 -4 42 0 16 5 29 5 29 0 0 -5 13 -5 30 0 18 5 30 5 30 0 0
-6 10 -6 25 0 15 6 25 6 25 0 0 -5 12 -5 30 0 17 5 32 5 35 0 3 -5 16 -5 30 0
15 6 27 6 30 -1 4 -5 11 -7 16 -3 15 9 79 11 79 2 0 -3 14 -3 30 2 17 5 30 5
30 1 0 -5 10 -6 23 -4 l23 5 0 4353 c-1 2394 -4 4356 -8 4360 -10 10 -68 12
-68 2 0 -4 -5 -5 -11 -2 -15 10 -99 11 -99 2 0 -5 -5 -5 -11 -2 -15 10 -78 12
-73 3 3 -5 -6 -4 -20 2 -18 6 -26 6 -26 -1 0 -6 -5 -7 -11 -4 -15 10 -99 11
-99 2 0 -4 -8 -4 -17 2 -10 5 -26 5 -40 0 -13 -5 -23 -5 -23 -1 0 4 -11 7 -25
7 -14 0 -25 -4 -25 -8 0 -4 -7 -4 -16 1 -9 5 -34 6 -55 2 -21 -4 -39 -5 -39
-1 0 3 -11 6 -25 6 -14 0 -25 -4 -25 -8 0 -5 -5 -5 -11 -2 -15 10 -99 11 -99
2 0 -5 -5 -5 -11 -2 -15 10 -78 12 -73 3 3 -5 -6 -4 -20 2 -18 6 -26 6 -26 -1
0 -6 -5 -7 -11 -4 -15 10 -99 11 -99 2 0 -4 -8 -4 -17 2 -10 5 -26 5 -40 0
-14 -5 -23 -5 -23 1 0 5 -12 5 -30 0 -16 -5 -30 -5 -30 -1 0 8 -65 5 -87 -3
-7 -3 -13 -2 -13 2 0 4 -11 7 -25 7 -14 0 -25 -4 -25 -8 0 -4 -7 -4 -16 1 -9
5 -34 6 -55 2 -21 -4 -39 -5 -39 -1 0 3 -11 6 -25 6 -14 0 -25 -4 -25 -8 0 -4
-7 -4 -16 1 -9 5 -34 6 -55 2 -21 -4 -39 -5 -39 -1 0 3 -11 6 -25 6 -14 0 -25
-4 -25 -8 0 -4 -8 -3 -19 2 -10 6 -21 7 -25 4z m-1481 -3854 c33 -1 70 -6 83
-11 14 -5 21 -4 17 1 -3 6 8 6 27 1 18 -5 49 -11 68 -14 150 -22 410 -115 480
-172 8 -7 18 -13 22 -14 15 -2 68 -35 68 -42 0 -5 5 -8 10 -8 6 0 16 -4 23
-10 107 -86 141 -116 192 -167 86 -87 96 -99 159 -188 31 -44 60 -84 64 -90 8
-10 106 -210 123 -250 37 -88 66 -183 70 -230 0 -5 5 -16 11 -22 6 -7 8 -20 4
-28 -3 -8 -2 -15 3 -15 5 0 9 -11 10 -25 4 -55 6 -65 11 -65 3 0 6 -17 7 -38
1 -20 6 -71 10 -112 15 -140 9 -424 -12 -560 -3 -19 -7 -48 -10 -65 -2 -16 -4
-30 -5 -30 -1 0 -3 -8 -5 -17 -18 -96 -87 -311 -107 -335 -6 -7 -7 -13 -4 -13
4 0 -12 -37 -35 -82 -125 -244 -284 -432 -484 -573 -38 -27 -73 -54 -77 -60
-4 -5 -8 -6 -8 -2 0 5 -12 0 -27 -11 -36 -26 -192 -99 -229 -108 -16 -4 -35
-11 -41 -17 -7 -5 -13 -6 -13 -2 0 4 -6 3 -12 -2 -7 -6 -31 -14 -53 -18 -22
-5 -44 -9 -50 -11 -20 -6 -61 -14 -90 -19 -16 -3 -41 -7 -55 -10 -123 -22
-397 -22 -520 0 -14 3 -38 7 -55 10 -16 3 -41 7 -55 10 -14 3 -40 8 -59 11
-19 4 -78 22 -130 41 -53 19 -106 37 -118 40 -13 3 -23 9 -23 14 0 5 -5 9 -11
9 -34 0 -237 123 -334 203 -69 57 -195 184 -195 197 0 5 -4 10 -8 10 -8 0 -48
52 -110 145 -33 49 -132 242 -145 281 -3 10 -15 42 -26 71 -10 28 -16 54 -13
57 3 3 1 6 -5 6 -5 0 -10 6 -11 13 0 13 -3 23 -25 112 -17 67 -35 174 -41 253
-3 29 -8 57 -11 62 -3 6 -1 10 5 10 7 0 8 5 3 13 -11 17 -12 239 -1 254 5 7 5
14 -2 18 -6 3 -8 10 -5 15 2 4 7 40 10 79 5 69 55 336 65 349 2 1 4 7 5 12 1
6 3 11 5 13 1 1 3 9 5 17 31 133 181 411 290 540 91 107 296 290 324 290 6 0
11 4 11 8 0 5 12 15 28 22 15 8 34 19 42 26 26 20 130 74 130 67 0 -3 9 2 20
12 11 10 20 15 20 11 0 -3 10 0 23 9 13 8 27 12 30 8 4 -3 7 -1 7 5 0 7 3 11
8 10 4 0 14 2 22 5 36 14 178 56 210 61 19 3 46 8 60 10 14 3 41 7 60 11 19 3
85 8 145 11 61 3 111 7 113 9 1 1 15 1 30 -1 15 -1 54 -4 87 -5z"/>
<path d="M13319 22175 c-1 -5 -2 -392 -3 -858 0 -556 2 -851 9 -856 14 -10
1701 -8 1712 2 12 13 10 1717 -2 1718 -5 0 -394 1 -863 2 -562 1 -852 -1 -853
-8z"/>
<path d="M2717 20023 c-2 -1 -30 -5 -63 -8 -32 -2 -86 -8 -119 -11 -33 -3 -70
-7 -82 -7 -13 -1 -23 -3 -23 -6 0 -4 -15 -7 -32 -7 -18 -1 -58 -7 -88 -13 -30
-6 -64 -13 -75 -15 -11 -3 -40 -9 -65 -16 -25 -6 -54 -13 -65 -15 -11 -2 -21
-4 -22 -5 -2 -2 -7 -4 -13 -5 -5 -1 -12 -4 -15 -5 -3 -1 -9 -4 -15 -5 -5 -1
-13 -4 -17 -5 -5 -1 -11 -2 -15 -1 -5 0 -8 -2 -8 -6 0 -5 -10 -9 -23 -9 -23
-2 -181 -61 -257 -97 -25 -12 -48 -21 -52 -20 -3 1 -12 -4 -18 -12 -7 -8 -21
-15 -30 -15 -10 0 -20 -3 -22 -7 -1 -5 -25 -20 -53 -34 -155 -80 -321 -204
-460 -344 -61 -60 -120 -123 -132 -140 -12 -16 -29 -39 -37 -50 -62 -81 -87
-120 -126 -190 -25 -44 -45 -82 -46 -85 0 -3 -13 -31 -28 -63 -31 -69 -87
-229 -89 -257 -1 -11 -4 -20 -8 -20 -3 0 -6 -13 -7 -29 0 -16 -5 -46 -11 -67
-21 -84 -34 -223 -35 -374 0 -108 10 -267 18 -291 3 -8 8 -32 10 -54 3 -22 11
-62 17 -90 6 -27 11 -54 12 -60 2 -5 6 -16 10 -22 5 -7 6 -13 2 -13 -3 0 -1
-9 5 -21 7 -11 14 -32 16 -47 3 -14 14 -45 24 -68 11 -24 20 -45 20 -48 0 -14
79 -169 112 -219 21 -32 38 -61 38 -64 0 -7 63 -87 72 -91 5 -2 8 -10 8 -17 0
-8 12 -23 26 -34 15 -12 24 -21 20 -21 -8 0 44 -58 115 -129 133 -132 297
-251 479 -347 19 -11 36 -22 38 -26 2 -5 7 -8 12 -8 4 0 46 -18 92 -39 45 -21
121 -53 168 -71 47 -17 94 -35 105 -39 36 -15 141 -46 320 -97 28 -7 91 -25
140 -39 50 -15 97 -28 105 -30 43 -10 177 -47 190 -52 8 -4 22 -7 30 -9 8 -1
65 -16 125 -34 61 -18 118 -34 128 -35 9 -2 21 -6 25 -9 5 -3 21 -7 37 -10 15
-3 60 -15 99 -26 39 -12 94 -28 121 -36 28 -8 59 -19 70 -23 25 -11 58 -24 65
-25 10 -2 145 -69 150 -75 3 -3 18 -13 35 -21 16 -8 63 -49 105 -90 97 -96
124 -159 124 -295 0 -97 -7 -154 -26 -188 -6 -12 -11 -24 -10 -27 3 -10 -23
-60 -30 -60 -5 0 -8 -7 -8 -15 0 -8 -29 -44 -65 -79 -46 -46 -88 -76 -147
-105 -88 -43 -205 -79 -250 -77 -16 1 -28 -1 -28 -4 0 -17 -342 -13 -445 5
-88 15 -211 46 -255 62 -8 3 -19 7 -25 8 -10 1 -15 3 -105 42 -30 13 -56 23
-56 21 -1 -2 -11 5 -21 15 -11 9 -23 14 -26 10 -4 -3 -7 -1 -7 6 0 7 -4 9 -10
6 -5 -3 -10 -3 -10 2 0 4 -15 14 -32 22 -18 8 -35 17 -38 21 -3 3 -23 17 -45
30 -22 13 -44 28 -50 32 -5 5 -39 31 -75 59 -102 79 -239 215 -302 301 -15 20
-34 42 -41 50 -7 7 -22 28 -32 46 -11 17 -23 32 -27 32 -4 0 -8 6 -8 14 0 8
-6 21 -13 28 -21 22 -49 69 -97 164 -46 90 -47 90 -76 81 -16 -6 -32 -14 -35
-19 -3 -5 -9 -9 -12 -9 -12 1 -142 -59 -417 -192 -47 -23 -87 -42 -90 -42 -3
0 -29 -13 -58 -28 -30 -15 -60 -27 -68 -27 -8 0 -14 -4 -14 -8 0 -5 -18 -15
-40 -22 -22 -7 -40 -17 -40 -22 0 -4 -6 -8 -14 -8 -8 0 -31 -9 -53 -20 -62
-31 -336 -161 -361 -171 -42 -16 -39 -35 28 -194 22 -51 32 -79 30 -84 -1 -2
2 -7 7 -10 4 -3 30 -50 58 -105 55 -110 165 -280 253 -389 64 -80 263 -283
331 -337 24 -19 48 -40 55 -45 41 -38 300 -215 315 -215 5 0 11 -3 13 -7 7
-16 285 -159 301 -155 4 1 7 -3 7 -10 0 -6 3 -8 6 -5 4 3 16 1 28 -5 11 -7 23
-13 26 -13 3 -1 21 -8 40 -16 19 -9 64 -26 100 -38 36 -13 72 -26 80 -29 19
-7 28 -9 70 -21 19 -5 69 -19 110 -31 73 -20 87 -24 140 -35 14 -3 36 -8 50
-11 23 -5 36 -7 100 -18 14 -3 25 -5 25 -6 0 -1 20 -4 45 -6 25 -2 79 -9 120
-14 145 -18 267 -24 475 -24 229 1 385 6 385 14 0 3 12 6 28 6 66 3 129 11
140 18 7 4 12 5 12 3 0 -2 21 0 48 5 54 11 111 20 130 21 6 0 12 3 12 6 0 3
10 7 23 7 12 1 49 9 82 18 33 9 67 18 75 21 8 2 16 4 18 5 1 2 5 3 10 5 4 1
21 5 37 10 39 10 189 67 251 95 90 40 243 121 286 151 14 11 31 19 37 19 6 0
11 3 11 8 0 4 16 16 35 26 19 11 35 23 35 27 0 4 8 10 18 13 9 3 28 16 42 28
14 13 48 41 75 63 64 52 222 212 243 248 9 15 20 27 24 27 4 0 14 12 22 28 8
15 23 36 33 47 11 11 21 25 22 30 2 6 16 29 32 51 16 23 45 75 64 115 20 41
42 85 49 99 7 14 19 43 26 65 7 22 17 46 23 53 5 6 6 12 2 12 -4 0 -2 7 5 15
7 8 10 15 6 15 -3 0 -1 12 5 28 10 25 13 35 23 80 7 29 35 184 45 240 9 55 8
431 -2 467 -2 11 -8 43 -11 70 -4 28 -12 67 -17 89 -6 21 -8 44 -5 52 3 8 1
14 -4 14 -6 0 -10 10 -10 23 0 13 -5 28 -12 35 -7 7 -9 12 -5 12 6 0 -50 165
-71 206 -14 29 -27 55 -58 115 -29 57 -105 170 -136 203 -10 11 -18 23 -18 28
0 16 -246 255 -315 306 -5 4 -28 21 -50 37 -22 17 -41 33 -43 38 -2 4 -8 7
-13 7 -4 0 -40 21 -79 46 -54 35 -345 190 -345 184 0 -1 -13 3 -28 9 -16 6
-30 11 -31 11 -2 0 -25 10 -52 22 -27 12 -55 23 -62 24 -8 1 -21 6 -30 10 -9
4 -21 8 -27 10 -5 2 -75 24 -155 49 -80 26 -152 48 -160 50 -8 2 -85 24 -170
50 -269 81 -285 86 -301 90 -9 2 -39 11 -65 20 -27 9 -56 18 -65 20 -8 2 -40
11 -70 20 -30 9 -92 27 -139 41 -47 13 -92 27 -100 31 -8 3 -22 7 -31 9 -9 2
-29 9 -45 15 -16 7 -31 13 -34 14 -3 1 -20 6 -37 10 -18 4 -33 11 -33 15 0 4
-12 11 -27 14 -39 10 -213 98 -213 108 0 4 -4 8 -10 8 -31 0 -128 106 -162
177 -33 69 -40 103 -40 183 0 162 52 269 182 372 84 66 207 112 355 133 89 12
95 12 95 3 0 -5 6 -6 13 -1 13 8 197 11 197 3 0 -3 27 -6 60 -7 133 -3 414
-94 565 -182 187 -109 364 -278 455 -431 32 -55 74 -138 94 -187 l21 -51 60
28 c141 68 240 114 245 115 3 0 24 11 46 23 23 11 44 18 48 15 3 -4 6 -1 6 5
0 7 9 12 19 12 11 0 26 7 35 15 8 8 18 15 21 15 4 0 40 16 81 35 92 44 209 98
294 137 36 16 72 34 80 39 8 5 25 14 38 19 27 12 107 48 190 87 31 15 63 28
70 29 30 5 41 24 31 57 -5 18 -13 41 -18 52 -6 11 -20 43 -31 70 -51 116 -126
256 -193 355 -76 114 -90 134 -109 151 -10 9 -18 19 -18 23 0 15 -278 306
-293 306 -4 0 -18 10 -30 23 -12 12 -40 36 -62 52 -22 16 -42 31 -45 34 -10
11 -98 71 -105 71 -3 0 -15 8 -26 18 -10 11 -32 25 -47 33 -15 7 -39 21 -53
31 -59 39 -311 159 -419 198 -63 23 -122 44 -130 47 -17 7 -27 10 -55 17 -11
3 -36 10 -55 16 -19 6 -46 13 -60 16 -14 3 -43 10 -65 16 -46 12 -53 13 -160
33 -126 22 -147 26 -200 30 -27 3 -72 7 -100 10 -52 6 -543 13 -548 8z"/>
<path d="M24975 20022 c-3 -3 -28 -6 -57 -8 -47 -2 -73 -5 -183 -19 -54 -7
-100 -14 -121 -19 -12 -2 -37 -7 -55 -10 -19 -3 -63 -13 -99 -22 -36 -9 -72
-18 -80 -19 -31 -4 -76 -18 -87 -28 -7 -5 -13 -7 -13 -4 0 3 -24 -2 -52 -12
-29 -10 -55 -19 -58 -19 -3 0 -18 -5 -33 -11 -15 -6 -39 -14 -53 -17 -13 -3
-27 -10 -30 -15 -3 -5 -11 -9 -18 -9 -8 0 -40 -12 -72 -26 -33 -14 -61 -26
-64 -26 -6 -1 -190 -96 -245 -127 -102 -58 -205 -125 -205 -132 0 -5 -6 -9
-12 -9 -12 0 -155 -106 -264 -195 -62 -51 -319 -309 -359 -360 -16 -21 -34
-43 -40 -49 -20 -22 -81 -102 -105 -138 -14 -21 -28 -38 -32 -38 -5 0 -8 -5
-8 -12 0 -6 -8 -21 -19 -32 -49 -55 -222 -369 -288 -521 -27 -64 -74 -180 -78
-195 0 -3 -14 -43 -29 -90 -16 -47 -29 -89 -30 -95 -1 -5 -5 -16 -9 -22 -5 -7
-6 -13 -3 -13 3 0 1 -11 -4 -25 -5 -14 -12 -36 -14 -48 -3 -12 -7 -32 -10 -44
-10 -39 -13 -56 -21 -103 -4 -25 -10 -49 -14 -55 -3 -5 -6 -17 -6 -25 -1 -8
-5 -40 -9 -70 -5 -30 -10 -67 -12 -82 -2 -16 -6 -43 -8 -60 -24 -179 -28 -878
-6 -878 3 0 5 -12 5 -27 -1 -16 1 -32 4 -37 2 -5 6 -30 8 -55 4 -57 47 -274
77 -391 68 -265 213 -614 347 -835 16 -27 32 -58 36 -67 3 -10 9 -18 13 -18 4
0 13 -13 20 -30 7 -16 16 -30 20 -30 3 0 13 -12 21 -27 8 -16 19 -33 24 -39 6
-6 17 -22 25 -34 8 -12 29 -39 45 -60 17 -21 37 -47 45 -59 46 -68 232 -266
331 -353 15 -13 45 -40 68 -61 84 -77 446 -334 446 -316 0 2 14 -6 31 -18 40
-29 245 -133 262 -133 6 0 12 -4 12 -10 0 -5 5 -10 12 -10 6 0 57 -18 112 -39
98 -38 120 -46 141 -51 6 -1 26 -8 45 -15 51 -19 142 -45 175 -51 17 -2 41 -9
55 -14 14 -5 41 -12 60 -15 68 -12 75 -13 105 -20 17 -4 41 -8 55 -10 14 -2
25 -4 25 -5 0 -2 22 -5 120 -14 39 -4 76 -10 84 -12 73 -24 648 -24 856 0 17
2 59 7 95 11 36 4 85 11 110 17 25 5 61 11 80 14 34 4 70 10 80 14 3 1 8 2 11
2 3 -1 48 10 100 24 52 14 101 27 109 29 8 2 15 4 15 5 0 2 20 7 60 15 16 3
33 12 37 18 4 7 8 9 8 5 0 -7 125 35 190 63 14 6 39 17 55 23 75 31 220 102
223 109 2 4 12 7 23 7 10 0 19 4 19 9 0 5 10 13 22 17 11 3 53 26 92 50 39 25
80 50 91 57 19 12 31 21 59 45 8 6 19 12 24 12 4 0 17 8 28 18 10 9 39 33 64
51 221 169 417 389 556 625 65 109 135 257 128 268 -3 4 -33 21 -67 37 -110
51 -279 132 -397 188 -189 91 -245 116 -252 115 -5 -1 -8 3 -8 8 0 6 -4 10
-10 10 -5 0 -39 14 -73 30 -35 16 -69 30 -75 30 -7 0 -12 5 -12 10 0 6 -4 10
-10 10 -5 0 -71 30 -147 67 -76 36 -140 67 -144 67 -5 1 -124 58 -162 78 -11
5 -20 8 -21 6 -25 -38 -36 -58 -34 -61 2 -2 -4 -11 -12 -20 -21 -23 -32 -37
-60 -77 -27 -38 -178 -191 -226 -228 -55 -42 -139 -97 -189 -122 -28 -14 -51
-28 -53 -32 -2 -5 -9 -8 -16 -8 -7 0 -30 -9 -52 -19 -46 -23 -222 -76 -278
-85 -21 -4 -41 -8 -45 -10 -7 -5 -135 -18 -207 -21 -29 -1 -57 -5 -62 -9 -6
-3 -13 -2 -17 4 -4 6 -13 7 -23 1 -11 -6 -24 -6 -34 0 -11 6 -19 6 -23 -1 -4
-6 -11 -7 -17 -4 -6 4 -47 8 -92 10 -44 1 -81 3 -81 4 0 1 -11 3 -25 5 -73 8
-133 19 -200 37 -41 10 -79 20 -85 21 -5 2 -16 6 -22 10 -7 5 -13 5 -13 1 0
-3 -7 -1 -15 6 -8 7 -15 10 -15 7 0 -12 -223 91 -228 105 -2 4 -10 8 -18 8 -8
0 -14 5 -14 10 0 6 -7 10 -15 10 -8 0 -15 5 -15 10 0 6 -5 10 -10 10 -39 0
-216 164 -330 306 -20 25 -100 152 -100 159 0 3 -12 24 -27 48 -14 23 -25 43
-24 45 1 1 -6 19 -15 40 -9 20 -20 46 -24 57 -4 11 -13 33 -19 49 -17 40 -55
196 -67 271 -3 17 -7 40 -9 53 -2 12 1 22 8 22 7 0 998 0 2204 0 l2192 0 11
43 c6 23 14 49 17 57 3 8 7 25 9 36 1 12 5 39 9 60 4 22 8 53 10 69 2 17 7 57
10 90 8 69 14 536 7 548 -2 5 -6 39 -7 75 -2 37 -6 85 -9 107 -3 22 -8 60 -11
85 -3 25 -7 56 -10 70 -3 13 -7 42 -11 65 -5 35 -24 133 -39 205 -3 14 -10 39
-15 55 -5 17 -19 64 -30 105 -25 87 -66 212 -85 255 -7 17 -23 57 -36 90 -13
33 -28 63 -32 66 -5 3 -8 8 -7 10 3 6 -66 149 -105 214 -19 33 -41 71 -47 85
-19 36 -72 114 -80 118 -5 2 -8 8 -8 13 0 5 -42 64 -92 131 -81 107 -341 382
-417 442 -14 11 -52 40 -85 65 -34 25 -63 48 -66 51 -3 3 -52 36 -110 72 -58
37 -111 72 -117 78 -7 6 -13 9 -13 6 0 -3 -26 10 -57 28 -59 32 -230 116 -239
116 -3 0 -24 8 -47 19 -44 19 -72 30 -85 32 -4 0 -15 5 -24 10 -23 12 -230 77
-265 83 -15 2 -30 5 -33 6 -3 1 -8 2 -12 1 -5 0 -8 4 -8 10 0 5 -4 8 -8 5 -5
-3 -25 -1 -45 5 -21 5 -49 12 -65 14 -78 12 -99 15 -122 21 -24 6 -55 10 -135
19 -22 3 -58 7 -80 10 -111 13 -211 18 -438 19 -136 1 -250 0 -252 -2z m435
-1387 c19 -3 42 -6 50 -6 31 -2 117 -21 185 -42 39 -11 73 -20 78 -19 4 1 7
-2 7 -6 0 -5 6 -9 13 -9 20 0 157 -69 219 -110 221 -147 400 -385 474 -628 10
-33 21 -62 24 -65 3 -3 5 -14 4 -25 0 -11 3 -30 8 -42 4 -13 10 -44 14 -70 3
-27 8 -56 10 -65 3 -19 -2 -19 -771 -19 -47 0 -479 0 -961 1 l-875 0 5 28 c13
72 78 266 98 289 6 7 7 13 4 13 -8 0 99 206 115 220 3 3 15 22 28 43 12 20 27
37 32 37 5 0 9 6 9 13 0 14 186 207 200 207 4 0 20 11 36 25 16 14 32 25 36
25 4 0 13 6 20 13 35 34 318 159 318 141 0 -4 6 -2 13 4 11 9 35 16 97 27 14
3 45 8 70 13 25 5 62 8 83 7 20 0 37 2 37 5 0 8 269 3 320 -5z"/>
<path d="M13337 19891 c-6 -2 -14 -7 -17 -12 -8 -12 -5 -6194 4 -6207 4 -7 3
-12 -1 -12 -5 0 -9 -14 -8 -31 0 -26 3 -30 22 -26 13 2 23 0 23 -4 0 -5 11 -4
25 1 13 5 26 6 29 2 5 -9 59 -7 75 2 5 4 12 2 16 -4 4 -6 12 -7 24 -1 9 5 23
6 30 1 8 -4 27 -4 42 0 16 5 29 5 29 0 0 -5 13 -5 30 0 18 5 30 5 30 0 0 -6
10 -6 25 0 15 6 25 6 25 0 0 -5 12 -5 30 0 17 5 32 5 35 0 3 -5 16 -5 30 0 15
6 27 6 30 -1 4 -5 11 -7 16 -3 15 9 79 11 79 2 0 -3 14 -3 30 2 17 5 30 5 30
1 0 -4 23 -5 50 -1 28 4 53 3 56 -1 3 -5 16 -4 29 1 15 6 27 6 30 0 4 -7 13
-6 25 0 13 7 21 7 25 0 4 -6 13 -7 24 -1 10 6 23 6 31 1 8 -5 21 -5 30 0 9 5
22 5 28 1 7 -4 33 -5 57 -1 25 4 45 3 45 -1 0 -5 11 -4 25 1 15 6 26 6 30 0 4
-6 13 -7 23 -1 25 13 25 13 54 2 17 -6 30 -7 33 -1 3 6 15 6 30 0 16 -6 25 -6
25 0 0 6 9 6 25 0 16 -6 34 -6 50 0 15 6 27 6 30 0 3 -6 15 -6 30 0 14 5 25 6
25 1 0 -4 20 -5 45 -1 25 4 48 3 51 -2 3 -4 13 -4 22 1 11 6 24 6 34 0 10 -6
19 -6 22 0 3 5 14 7 24 5 16 -5 17 150 17 3138 l0 3143 -848 5 c-466 3 -853 3
-860 1z"/>
</g>
</svg>
